<svg width="22" height="26" viewBox="0 0 22 26" fill="none" xmlns="http://www.w3.org/2000/svg">
<path fill-rule="evenodd" clip-rule="evenodd" d="M11.006 25C11.006 25 1.70001 17.544 1.70001 10.306C1.70001 7.8379 2.68046 5.47088 4.42568 3.72566C6.17089 1.98045 8.53791 1 11.006 1C13.4741 1 15.8411 1.98045 17.5863 3.72566C19.3316 5.47088 20.312 7.8379 20.312 10.306C20.312 17.544 11.006 25 11.006 25Z" stroke="#333333" stroke-width="1.7" stroke-linecap="round" stroke-linejoin="round"/>
<path d="M10.912 12.9078C12.4496 12.9078 13.696 11.6614 13.696 10.1238C13.696 8.58628 12.4496 7.33984 10.912 7.33984C9.37446 7.33984 8.12802 8.58628 8.12802 10.1238C8.12802 11.6614 9.37446 12.9078 10.912 12.9078Z" stroke="#333333" stroke-width="1.7" stroke-linecap="square" stroke-linejoin="round"/>
</svg>
