<svg width="51" height="52" viewBox="0 0 51 52" fill="none" xmlns="http://www.w3.org/2000/svg">
<path d="M25.5 42.8833C34.5759 42.8833 41.9333 35.5258 41.9333 26.4499C41.9333 17.3741 34.5759 10.0166 25.5 10.0166C16.4241 10.0166 9.06665 17.3741 9.06665 26.4499C9.06665 35.5258 16.4241 42.8833 25.5 42.8833Z" fill="#3E3526"/>
<path fill-rule="evenodd" clip-rule="evenodd" d="M32.0659 22.6445L30.481 29.3859H21.4098L19.8322 22.6445H32.0659Z" stroke="white" stroke-width="1.4" stroke-linecap="square" stroke-linejoin="round"/>
<path d="M29.064 34.0751C29.7497 34.0751 30.3056 33.5192 30.3056 32.8334C30.3056 32.1477 29.7497 31.5918 29.064 31.5918C28.3782 31.5918 27.8223 32.1477 27.8223 32.8334C27.8223 33.5192 28.3782 34.0751 29.064 34.0751Z" stroke="white" stroke-width="1.2" stroke-linecap="square" stroke-linejoin="round"/>
<path d="M22.8341 34.0751C23.5198 34.0751 24.0757 33.5192 24.0757 32.8334C24.0757 32.1477 23.5198 31.5918 22.8341 31.5918C22.1484 31.5918 21.5925 32.1477 21.5925 32.8334C21.5925 33.5192 22.1484 34.0751 22.8341 34.0751Z" stroke="white" stroke-width="1.2" stroke-linecap="square" stroke-linejoin="round"/>
<path d="M17.1225 20.5195H19.3282L20.358 24.8871" stroke="white" stroke-width="1.4" stroke-linecap="square" stroke-linejoin="round"/>
</svg>
