<svg xmlns="http://www.w3.org/2000/svg" viewBox="0 0 38.71 48.08"><defs><style>.cls-1{fill:#d9c6a9;}</style></defs><title>자산 1</title><g id="레이어_2" data-name="레이어 2"><g id="레이어_1-2" data-name="레이어 1"><g id="레이어_2-2" data-name="레이어 2"><path class="cls-1" d="M17,42.56c8.31-.11,8.69-4.35,9.41-8.2a38.26,38.26,0,0,0,.4-5.43L9.5,34.82h.07S8.74,42.67,17,42.56Z"/><path d="M36.07,12.1,35.3,7.59l-5.22-.28L31.29.44,26.61,0l-.55,7L3.74,6.05,2.36,11.93,0,11.82.38,17.1,26.67,17c.07,2.45.26,7.59.18,11.89a38.26,38.26,0,0,1-.4,5.43c-.72,3.85-1.1,8.09-9.41,8.2s-7.47-7.74-7.47-7.74H4.34c0,7.49,1.6,8.73,4,10.6S15.89,48.49,20.07,48s10-.72,11.55-8.31,1.81-22.49,1.81-22.49h5.06l.22-5Z"/></g></g></g></svg>