<svg id="레이어_1" data-name="레이어 1" xmlns="http://www.w3.org/2000/svg" viewBox="0 0 122.97 52.9"><defs><style>.cls-1{font-size:35.28px;fill:#fdfdfe;font-family:MADETOMMY-Bold, MADE TOMMY;font-weight:700;}.cls-2{fill:#d9c6a9;}.cls-3{fill:#fff;}</style></defs><title>JIJO_LOGO_white</title><text class="cls-1" transform="translate(0 43.97)">JIJO</text><g id="레이어_2" data-name="레이어 2"><path class="cls-2" d="M107.53,46.74c8.3-.11,8.69-4.34,9.4-8.19a36.94,36.94,0,0,0,.4-5.43L100,39h.07S99.23,46.85,107.53,46.74Z" transform="translate(-6.22 -4.18)"/><path class="cls-3" d="M126.55,16.28l-.76-4.51-5.23-.27,1.21-6.88-4.67-.44-.55,7-22.33-.94-1.37,5.89L90.49,16l.38,5.27,26.28-.05c.08,2.45.27,7.58.18,11.89a36.94,36.94,0,0,1-.4,5.43c-.71,3.85-1.1,8.08-9.4,8.19S100.05,39,100.05,39H94.83c-.06,7.5,1.59,8.73,4,10.6s7.59,3.08,11.76,2.53,10-.72,11.55-8.3,1.82-22.49,1.82-22.49h5l.22-5.06Z" transform="translate(-6.22 -4.18)"/></g></svg>